<?xml version="1.0" encoding="utf-8"?>
<!-- Generator: Adobe Illustrator 15.1.0, SVG Export Plug-In . SVG Version: 6.00 Build 0)  -->
<!DOCTYPE svg PUBLIC "-//W3C//DTD SVG 1.1//EN" "http://www.w3.org/Graphics/SVG/1.1/DTD/svg11.dtd">
<svg version="1.1" id="Layer_1" xmlns="http://www.w3.org/2000/svg" xmlns:xlink="http://www.w3.org/1999/xlink" x="0px" y="0px"
	 width="250px" height="126px" enable-background="new 0 0 250 126" xml:space="preserve">
<g>
	<path d="M46.411,85.515c0,0.478-0.08,0.878-0.24,1.197l-0.479,1.317c-0.36,0.759-0.839,1.358-1.437,1.797
		c0-0.32,0.1-0.839,0.299-1.558C45.273,86.913,45.891,85.993,46.411,85.515z M72.398,23.958c1.277,0.799,2.095,1.198,2.455,1.198
		c-0.041,0.119-0.059,0.2-0.059,0.239c0,0.161,0.079,0.239,0.238,0.239l-0.059,0.181c-0.279,0.679-0.919,1.796-1.916,3.353v0.12
		c0,0.799,2.235,2.116,6.707,3.952c1.317,0.799,1.976,1.856,1.976,3.174v0.12c0.638,0.44,0.958,1.039,0.958,1.796
		c0,0.44-0.08,0.899-0.24,1.377c-1.996,3.674-5.829,8.025-11.497,13.054c-3.194,2.875-5.469,4.312-6.826,4.312
		c-0.119,0.28-0.759,0.419-1.915,0.419h-0.061c-0.799-0.279-1.458-0.419-1.975-0.419c-2.236,2.755-3.914,5.51-5.03,8.263
		c-1.039,1.677-3.474,6.388-7.306,14.132c-0.479,0.838-0.837,1.257-1.077,1.257c-0.081,0-0.12-0.079-0.12-0.24
		c0-0.558,0.379-1.995,1.138-4.311c0.119-0.479,0.179-0.858,0.179-1.138s-0.061-0.458-0.179-0.539
		c1.715-4.111,2.913-6.887,3.592-8.324c0.837-2.954,1.337-4.65,1.498-5.089l0.479-1.078c0.279-0.838,1.057-2.135,2.335-3.892
		c0.479-1.678,0.738-2.594,0.778-2.755c0.079-0.159,0.419-0.838,1.018-2.036c0.798-2.675,1.377-4.491,1.737-5.449l3.772-9.461
		c0.598-1.396,1.457-3.972,2.574-7.725l0.06-0.179c0.919-2.235,2.256-3.473,4.012-3.712C71.12,24.239,72.039,23.958,72.398,23.958z
		 M67.549,44.078l-0.6,1.377c-0.399,1.038-1.538,3.254-3.413,6.646c0.04,0,0.06,0.061,0.06,0.179c0,0.4-0.339,1.737-1.018,4.013
		c3.713-3.074,5.888-5.428,6.527-7.066l0.06-0.179c0.24-1.397,0.359-2.535,0.359-3.414c0-1.476-0.34-2.215-1.018-2.215h-0.418
		C68.006,43.419,67.827,43.64,67.549,44.078z"/>
	<path d="M80.562,46.952c-0.079,0.879-0.119,1.677-0.119,2.395c0,2.396,0.499,3.594,1.497,3.594c0.638,0,1.456-0.459,2.455-1.378
		c0.199-0.04,0.399-0.06,0.599-0.06c1.117,0,1.896,0.599,2.335,1.797c1.836,2.675,2.755,4.451,2.755,5.329
		c0,0.16-0.021,0.279-0.06,0.359c-0.042,0.839-0.081,1.298-0.121,1.377c-0.44,0.359-0.979,0.539-1.616,0.539
		c-1.598,0-2.715-0.539-3.354-1.616l-0.539-0.3c-0.359,0-1.238,0.64-2.635,1.916c-0.12,0-0.62,0.938-1.497,2.815l-6.706,12.873
		c-0.839,0.52-1.917,0.779-3.234,0.779h-1.677c-0.16,0-0.299-0.08-0.417-0.24l0.358-0.658l0.839-2.335
		c0.359-0.918,1.037-3.493,2.036-7.725l0.24-0.658c0.039-0.08,0.119-0.2,0.238-0.359c0.439-2.435,1.038-4.691,1.797-6.767
		l0.838-1.917c1.078-2.833,1.715-5.188,1.916-7.064l0.06-0.24c0.599-1.517,1.576-2.276,2.934-2.276
		C79.844,47.132,80.204,47.071,80.562,46.952z"/>
	<path d="M100.643,52.461c2.354,0.399,4.771,0.978,7.246,1.736c0.119,0,0.179,0.179,0.179,0.539c0,0.799-0.3,2.515-0.898,5.149
		c-2.396,6.668-3.753,10-4.072,10c-0.64,0.839-1.317,2.017-2.036,3.533c-1.518,1.717-3.453,2.576-5.808,2.576
		c-1.159-0.12-1.737-0.399-1.737-0.839v-0.18c0.877-0.278,1.356-0.577,1.438-0.898h-0.778c-0.321,0-0.62,0.04-0.899,0.12
		c-2.834,0-4.531-0.918-5.09-2.754c-0.479-0.279-0.719-0.779-0.719-1.497v-0.18c-0.039-0.398-0.059-0.798-0.059-1.197
		c0-0.758,0.1-1.497,0.299-2.216l0.719-2.274c0.638-2.037,1.218-3.254,1.737-3.653C94.436,55.116,97.928,52.461,100.643,52.461z
		 M96.272,62.821l-0.42,1.496c-0.08,0.799-0.119,1.558-0.119,2.276c0,1.956,0.239,3.652,0.718,5.09l0.359,1.137h0.12
		c1.158-1.916,2.096-4.031,2.815-6.347l0.599-1.736c0.398-1.916,0.599-3.254,0.599-4.012c0-0.479-0.081-0.719-0.24-0.719
		c-0.638-0.559-1.357-0.877-2.155-0.958C97.549,59.967,96.791,61.225,96.272,62.821z"/>
	<path d="M126.704,37.851c0.319,0,1.137,0.679,2.454,2.036c0.799,0.239,1.198,0.478,1.198,0.718v0.12l-0.24,0.659
		c-2.634,3.593-4.131,5.788-4.49,6.586l-1.019,2.156c-0.2,0.599-0.319,0.958-0.359,1.078c-0.878,1.997-4.261,9.441-10.149,22.335
		c-5.889,12.895-8.951,19.601-9.191,20.12l-0.059,0.12c-0.4,0.958-0.86,1.756-1.378,2.396c-0.24,0.598-0.379,0.977-0.419,1.138h0.54
		l0.179-0.061c-0.041,1.038-0.24,1.996-0.599,2.875l-0.18,0.419c-0.958,0.998-2.014,1.498-3.172,1.498l-1.318-0.599
		c-0.678,0.039-1.097,0.06-1.256,0.06c-1.596-0.12-2.715-0.439-3.354-0.958c-0.399-0.639-0.838-1.098-1.318-1.377
		c-0.119-0.24-0.179-0.539-0.179-0.898c0-0.68,0.22-1.537,0.659-2.575c0.16-1.357,0.62-3.254,1.377-5.688
		c0.999-4.551,1.497-7.485,1.497-8.802c0-0.519-0.081-0.779-0.24-0.779c-0.08-0.079-0.16-0.119-0.24-0.119
		c-0.798,0.08-1.257,0.119-1.377,0.119c-0.559-0.199-0.838-0.518-0.838-0.957c0-0.16,0.04-0.339,0.119-0.539
		c0.24-0.599,1.159-1.318,2.755-2.156h0.18c0.161,0,0.259,0.04,0.299,0.12c0.439-0.08,0.778-0.12,1.018-0.12h0.539
		c1.398,0,2.814,1.937,4.252,5.808c0.079,0.359,0.199,0.54,0.36,0.54c0.199-0.24,0.338-0.459,0.418-0.659l0.12-0.3
		c0.159-0.877,0.338-1.516,0.539-1.917l0.239-0.658c0.399-0.918,1.217-2.254,2.455-4.012c0.24-0.599,0.44-1.097,0.6-1.497
		c0.718-1.276,1.916-3.812,3.593-7.605c1.197-2.036,1.896-3.293,2.095-3.772l0.599-1.497c0.599-1.356,2.294-4.671,5.09-9.94
		c1.956-3.952,3.672-7.305,5.15-10.06c0.877-2.115,1.596-3.174,2.154-3.174C126.045,37.911,126.345,37.851,126.704,37.851z
		 M132.273,26.114c1.756,0.519,2.634,1.018,2.634,1.498v0.12c-0.24,2.595-0.44,4.092-0.599,4.491
		c-0.479,0.878-0.838,1.318-1.078,1.318c-0.998-0.44-1.656-0.66-1.976-0.66h-0.3c-0.28,0-0.878,0.141-1.797,0.42
		c-0.878,0-1.437-0.678-1.676-2.036C129.279,27.831,130.875,26.114,132.273,26.114z"/>
	<path d="M141.257,52.941h1.017c0.639,0,1.638,0.619,2.995,1.855c2.314,1.118,3.592,3.314,3.832,6.586
		c0.04,0.56,0.06,1.059,0.06,1.497c0,0.919-0.08,1.557-0.24,1.917c-0.758,1.318-1.835,1.976-3.232,1.976h-0.778
		c-0.398,0-1.157,0.519-2.276,1.557l-0.538,0.06c-0.399-0.359-0.818-0.54-1.258-0.54l-4.729,0.898c-0.321,0-0.66-0.079-1.019-0.239
		c-1.717,0.44-2.635,0.799-2.755,1.078c-0.04,0.041-0.06,0.1-0.06,0.179c0,0.56,1.377,0.939,4.132,1.138
		c0.158,0.081,0.817,0.12,1.977,0.12c0.438,0,1.377-0.039,2.813-0.12v0.24l-0.239,0.42c-0.16,0.399-1.597,1.037-4.312,1.916
		c-2.076,0.44-3.713,0.659-4.91,0.659c-3.992,0-6.526-0.379-7.605-1.138c-2.275-0.798-3.413-1.377-3.413-1.737v-0.06
		c0.319-3.473,0.798-5.968,1.438-7.484c1.915-3.594,3.054-5.39,3.412-5.39c2.715-2.434,4.751-3.653,6.107-3.653
		C136.385,53.52,139.58,52.941,141.257,52.941z M133.771,62.341c-0.04,0.16-0.06,0.299-0.06,0.419c0,0.161,0.039,0.24,0.12,0.24
		c1.078-0.12,1.716-0.179,1.917-0.179c0.277,0,1.216,0.02,2.813,0.059c1.198-0.039,1.856-0.179,1.976-0.418
		c0.239-0.438,0.399-0.758,0.479-0.958c0.399-0.918,0.6-1.676,0.6-2.275c0-0.718-0.281-1.176-0.84-1.378h-0.718
		c-1.876,0-3.793,1.219-5.747,3.653C134.03,62.062,133.852,62.341,133.771,62.341z"/>
	<path d="M161.975,54.138c0.719,0,1.297,1.018,1.737,3.054c0.358,0,0.539,0.081,0.539,0.24v0.06l-0.121,0.479
		c-0.119,0.321-1.116,0.699-2.993,1.138c-1.758,0.839-2.895,2.096-3.413,3.772l-0.599,0.779c-0.121,0.359-0.18,0.74-0.18,1.138
		c0,1.118,0.479,2.275,1.437,3.473c1.277,0.599,2.015,1.657,2.215,3.174v0.12c-0.2,0.679-0.578,1.277-1.137,1.796h-0.659
		c-4.19,0.919-7.047,1.377-8.562,1.377h-0.419c-2.396-0.559-3.592-1.138-3.592-1.737v-0.12c-0.4-0.518-0.68-1.756-0.84-3.712
		c1.517-3.672,2.495-5.509,2.935-5.509c1.996-3.313,3.592-5.33,4.791-6.047c2.154-1.637,4.091-2.456,5.808-2.456
		C158.921,54.997,159.939,54.658,161.975,54.138z"/>
	<path d="M186.227,28.09h0.238c0.279-0.081,0.54-0.12,0.779-0.12c0.877,0,1.316,0.539,1.316,1.616c0,2.155-1.656,6.348-4.969,12.575
		l-1.677,3.533l8.322,1.497c4.591,0.28,8.244,1.099,10.958,2.456c-2.555,0.039-3.852,0.1-3.892,0.179c-0.24,0-0.599-0.04-1.077-0.12
		c-9.342-0.319-14.632-0.479-15.869-0.479c-0.639,0-2.575,4.89-5.809,14.67c-0.119,0.041-0.319,0.36-0.598,0.958l-0.12,0.299
		c-0.16,0.439-0.261,1.257-0.3,2.455c-1.397,2.117-2.595,4.513-3.593,7.186c-0.798,1.597-1.277,2.515-1.438,2.754l-0.119-0.12h-0.24
		l-0.777,0.838c0,0.64-0.06,1.099-0.181,1.377c-0.2,0.16-0.339,0.239-0.418,0.239c-0.041,1.039-0.121,1.676-0.239,1.917
		l-0.181,0.599c-0.16,0.28-0.359,0.418-0.599,0.418c-0.56,1.518-1.357,3.574-2.396,6.168c-0.08,0.2-0.338,1.118-0.778,2.755
		c-1.077,2.714-1.955,4.97-2.634,6.766c-0.279,0.639-0.439,0.997-0.479,1.078c-0.479-0.359-0.719-0.859-0.719-1.497
		c0-0.4,0.101-0.859,0.3-1.377c0.16-0.359,0.238-1.039,0.238-2.036c0-0.4-0.02-0.86-0.059-1.377l0.539-1.677l2.095-5.809
		c0.239-0.637,0.618-1.976,1.139-4.012l0.24-0.659c0.118-0.319,0.457-1.097,1.018-2.335v-1.678l1.796-4.969
		c0.638-1.716,1.258-4.332,1.856-7.845c0.718-2.235,1.795-6.566,3.233-12.993c0.239-0.958,0.358-1.596,0.358-1.916
		c0-0.199-0.04-0.3-0.119-0.3c-10.499-0.079-15.987-0.119-16.467-0.119h-0.299c-1.357-0.479-2.355-1.218-2.994-2.216
		c-2.116-2.913-3.175-4.791-3.175-5.628c0-0.32,0.18-0.479,0.539-0.479c0.12,0,0.281,0.021,0.479,0.06l20.36,2.216
		c0.558,0.32,1.077,0.479,1.556,0.479c1.038,0,1.855-0.838,2.455-2.515c1.916-4.392,3.073-6.587,3.473-6.587
		c0.958-2.116,1.637-3.174,2.035-3.174c1.956-1.916,4.013-2.875,6.168-2.875C185.547,28.15,185.786,28.09,186.227,28.09z"/>
	<path d="M200.249,50.65c0.402,0.273,1.625,0.514,3.664,0.721c1.006,0.583,1.617,1.313,1.832,2.186
		c-0.194,0.444-1.386,0.801-3.577,1.075c-6.809,1.146-10.502,2.461-11.077,3.948c-0.108,0.72-0.159,1.319-0.151,1.798
		c0.019,1.159,0.326,1.732,0.925,1.723c0.282,0.195,0.428,0.532,0.437,1.011c0.738,1.267,2.05,2.244,3.938,2.933
		c0.259,1.234,0.597,2.446,1.014,3.636c0.005,0.28-0.087,0.762-0.276,1.443l-0.927,1.991c0.002,0.081-0.131,0.502-0.398,1.263
		c-1.372,1.66-3.195,2.506-5.471,2.542c-0.04,0.001-0.059-0.019-0.06-0.06V76.8l-0.539,0.129l-1.196,0.019
		c-0.359,0.006-2.422-0.342-6.186-1.041c-1.477,0.023-2.44-0.3-2.89-0.972c-0.242-0.157-0.365-0.395-0.37-0.714
		c-0.005-0.24,0.071-0.52,0.227-0.842l0.057-0.18c2.453-1.436,4.995-2.255,7.626-2.457l1.546-0.682l0.118-0.241
		c0.035-0.16,0.055-0.3,0.052-0.42c-0.01-0.599-0.752-0.887-2.229-0.864c-0.439,0.007-2.044-0.446-4.812-1.36
		c-2.52-0.361-3.785-0.839-3.795-1.438c0-0.04,0.019-0.1,0.059-0.181c-0.042,0-0.062-0.059-0.063-0.178
		c-0.003-0.12,0.054-0.36,0.167-0.722l0.229-0.663c0.193-0.442,0.465-0.964,0.814-1.569c0.563-2.244,0.979-3.688,1.25-4.331
		l0.691-1.688c2.172-1.511,4.176-2.282,6.012-2.311c2.064-0.711,5.085-1.616,9.061-2.717
		C196.544,51.127,197.976,50.886,200.249,50.65z"/>
</g>
</svg>
