<?xml version="1.0" encoding="utf-8"?>
<!-- Generator: Adobe Illustrator 15.1.0, SVG Export Plug-In . SVG Version: 6.00 Build 0)  -->
<!DOCTYPE svg PUBLIC "-//W3C//DTD SVG 1.1//EN" "http://www.w3.org/Graphics/SVG/1.1/DTD/svg11.dtd">
<svg version="1.1" id="Layer_1" xmlns="http://www.w3.org/2000/svg" xmlns:xlink="http://www.w3.org/1999/xlink" x="0px" y="0px"
	 width="250px" height="89px" viewBox="0 0 250 89" enable-background="new 0 0 250 89" xml:space="preserve">
<g>
	<path d="M26.772,2.483c2.019,0.768,3.574,1.151,4.664,1.151h0.727c0.364,1.172,0.545,2.202,0.545,3.089
		c0,0.646-0.101,1.212-0.303,1.696l-0.243,0.606l-1.695,1.453c-0.445,3.271-0.829,5.25-1.151,5.937
		c-0.243,0.605-0.485,1.979-0.727,4.119c-1.172,4.806-1.757,7.854-1.757,9.146c0,0.485,0.081,0.727,0.243,0.727
		c3.271,0.485,4.926,0.829,4.966,1.03l0.061,0.545l-0.121,0.303c-2.706,1.737-4.16,2.605-4.361,2.605
		c-0.122,0-0.506-0.04-1.151-0.121c-0.243,0.202-0.506,0.302-0.788,0.302v0.243l-2.543,6.724c-0.243,0.324-0.424,0.605-0.545,0.848
		c-0.324,0.767-0.484,1.838-0.484,3.21c-0.121,0.283-0.182,0.707-0.182,1.272c0,0.404,0.04,0.908,0.121,1.515l-0.424,1.574
		c-0.929,0.566-1.595,0.849-1.999,0.849h-0.364c-0.525,0-0.787-0.565-0.787-1.696c0-0.605,0.081-1.393,0.242-2.362
		c0.121-2.947,0.625-6.966,1.514-12.054c-0.929-0.282-2.766-0.524-5.512-0.728c-0.646,0-2.019,1.939-4.119,5.815
		c-0.605,0.688-1.131,1.555-1.574,2.604c-0.284,1.252-0.485,2.039-0.606,2.363c-4.523,2.019-7.208,3.027-8.056,3.027
		C0.121,48.194,0,48.114,0,48.032v-0.061c0.283-0.363,1.171-1.333,2.665-2.907c-0.283-0.485-0.424-0.808-0.424-0.969v-0.062
		l0.605-0.727l0.606-1.454c0.727-1.696,2.281-4.542,4.664-8.541c-0.283-0.402-0.787-0.605-1.514-0.605H5.754
		c-0.364,0-0.849,0.061-1.454,0.182c-0.082-0.121-0.222-0.182-0.424-0.182l0.061-0.121c0.323-0.767,2.281-1.493,5.875-2.181
		c0.767-0.887,2.483-3.997,5.148-9.328c2.947-5.168,5.915-10.438,8.904-15.809c1.09-1.857,1.958-2.787,2.605-2.787H26.772z
		 M21.866,20.776c-0.969,1.616-2.403,4.522-4.301,8.722l0.605,0.181c1.857,0,2.887-0.242,3.089-0.727l0.121-0.303v-0.242
		c0-0.726,0.282-2.624,0.848-5.693c0.04-0.282,0.061-0.545,0.061-0.787C22.29,21.241,22.148,20.857,21.866,20.776z"/>
	<path d="M49.062,0.666c0.565,0,0.888,0.465,0.969,1.394c1.655,0.566,2.483,0.929,2.483,1.089l-0.242,0.788l-0.182,0.425
		c-0.324,0.767-1.394,2.302-3.21,4.603c-4.927,9.691-7.874,15.729-8.843,18.111l-0.061,0.121c-0.324,0.808-0.485,1.312-0.485,1.515
		c0,0.081,0.02,0.121,0.061,0.121c2.504,0.525,3.998,1.392,4.482,2.604c0.888,1.374,2.705,2.767,5.451,4.179
		c0.04,1.293,0.1,1.939,0.182,1.939c-1.575,2.827-2.787,4.624-3.635,5.391c-2.907,2.625-5.451,3.936-7.632,3.936h-1.09
		c-2.584,0-3.876-0.363-3.876-1.09c0-0.121,0.02-0.242,0.061-0.363l0.121-0.303c0.323-0.202,1.049-0.463,2.181-0.788
		c1.09-0.968,1.897-1.917,2.422-2.846c0.161-0.364,0.242-0.747,0.242-1.151c0-1.09-0.566-2.382-1.696-3.876
		c-0.203,0-0.424-0.1-0.667-0.303c-0.727,1.575-1.514,2.989-2.362,4.24l-0.484,2.18c-0.606,0.364-1.575,0.626-2.907,0.788
		c-0.525-0.161-0.828-0.243-0.909-0.243c-0.646,0.163-1.09,0.243-1.333,0.243c-1.777,0-2.665-0.202-2.665-0.606
		c0-0.08,0.02-0.142,0.061-0.182c0.323-2.382,0.565-3.756,0.727-4.119c0.364-0.403,0.565-0.667,0.606-0.787l4.301-11.449
		c0.121,0,1.857-3.795,5.209-11.387c1.575-2.867,2.523-4.684,2.847-5.451c0.201-0.485,0.908-2.382,2.12-5.693
		c1.373-1.656,2.523-2.484,3.452-2.484C45.044,0.969,46.478,0.787,49.062,0.666z"/>
	<path d="M56.099,24.773c2.382,0.403,4.825,0.989,7.329,1.757c0.121,0,0.182,0.181,0.182,0.545c0,0.808-0.303,2.544-0.908,5.208
		c-2.423,6.745-3.796,10.115-4.119,10.115c-0.647,0.849-1.333,2.041-2.06,3.574c-1.535,1.737-3.493,2.605-5.875,2.605
		c-1.172-0.121-1.757-0.403-1.757-0.849v-0.183c0.888-0.281,1.373-0.583,1.454-0.908h-0.787c-0.324,0-0.626,0.041-0.909,0.121
		c-2.868,0-4.583-0.928-5.148-2.785c-0.484-0.283-0.727-0.789-0.727-1.515v-0.182c-0.04-0.403-0.061-0.807-0.061-1.211
		c0-0.766,0.101-1.515,0.303-2.242l0.727-2.301c0.646-2.061,1.231-3.292,1.757-3.695C49.819,27.458,53.352,24.773,56.099,24.773z
		 M51.677,35.252l-0.424,1.513c-0.081,0.809-0.121,1.576-0.121,2.302c0,1.979,0.242,3.695,0.727,5.149l0.363,1.15h0.121
		c1.171-1.938,2.12-4.078,2.847-6.421l0.605-1.756c0.403-1.938,0.606-3.292,0.606-4.059c0-0.485-0.082-0.727-0.243-0.727
		c-0.646-0.565-1.373-0.888-2.18-0.969C52.969,32.366,52.202,33.638,51.677,35.252z"/>
	<path d="M70.515,23.078h0.484c0.485,0.121,1.675,0.747,3.574,1.877c1.009,0.121,1.515,0.324,1.515,0.606v0.121l-0.243,0.849
		l-1.09,2.119c-0.121,0.445-0.242,0.809-0.363,1.091c-0.324,0.484-1.01,1.191-2.06,2.12c-0.081,0.324-0.162,0.606-0.242,0.848
		c-0.889,1.172-1.514,1.959-1.877,2.362c-0.889,2.868-1.333,4.685-1.333,5.452c0,0.324,0.061,0.484,0.182,0.484
		c0,0.242,0.606,1.051,1.817,2.423h0.06c0.323,0,1.575-1.433,3.755-4.3c2.019-4.361,3.432-6.824,4.24-7.39
		c0.161-0.122,0.262-0.282,0.303-0.485c0.808-1.817,1.272-3.593,1.394-5.33l0.363-0.849c0.444-1.008,1.394-1.514,2.847-1.514h0.484
		l4.24,1.999c0.04,0.041,0.061,0.101,0.061,0.181c0,0.728-0.727,2.767-2.18,6.118c-0.242,0.647-0.585,1.393-1.03,2.242
		c-0.525,1.736-0.969,3.049-1.333,3.937l-0.605,1.454c-1.858,4.361-3.13,6.542-3.816,6.542c-0.687,0.242-1.09,0.524-1.211,0.847
		c-0.485,1.455-1.03,2.868-1.636,4.24l-0.242,0.121H76.39c-0.445,0-0.667-0.766-0.667-2.302v-0.424
		c-0.445-0.484-0.869-0.727-1.272-0.727h-1.938c-1.212,0-2.686,0.283-4.422,0.848h-0.121c-0.283,0-1.656-0.545-4.119-1.635
		c-1.737,0-2.747-0.687-3.029-2.06c-0.484-0.687-0.727-1.373-0.727-2.06c0-0.364,0.081-0.746,0.243-1.151l0.182-0.485
		c1.372-2.382,2.302-4.119,2.786-5.208l0.727-1.696c0.605-0.888,0.948-1.433,1.03-1.636l1.151-2.725
		c0.282-0.687,0.948-2.484,1.999-5.392C69.384,23.583,70.151,23.078,70.515,23.078z"/>
	<path d="M105.638,0.121h0.242C106.162,0.04,106.425,0,106.667,0C107.555,0,108,0.545,108,1.635c0,2.181-1.676,6.421-5.027,12.721
		l-1.696,3.574l8.419,1.513c4.643,0.284,8.338,1.112,11.084,2.484c-2.584,0.04-3.897,0.101-3.937,0.181
		c-0.242,0-0.605-0.04-1.09-0.121c-9.449-0.323-14.8-0.485-16.051-0.485c-0.646,0-2.604,4.947-5.875,14.84
		c-0.121,0.041-0.324,0.363-0.605,0.969L93.1,37.614c-0.162,0.445-0.263,1.272-0.303,2.483c-1.414,2.142-2.625,4.565-3.634,7.269
		c-0.809,1.615-1.293,2.544-1.454,2.786l-0.121-0.121h-0.242l-0.788,0.848c0,0.646-0.061,1.111-0.182,1.394
		c-0.202,0.162-0.344,0.242-0.424,0.242c-0.041,1.051-0.121,1.695-0.242,1.938l-0.182,0.606c-0.162,0.283-0.364,0.424-0.606,0.424
		c-0.566,1.535-1.374,3.614-2.423,6.239c-0.082,0.202-0.343,1.131-0.788,2.786c-1.09,2.746-1.978,5.027-2.665,6.845
		c-0.282,0.646-0.443,1.008-0.484,1.09c-0.484-0.363-0.727-0.869-0.727-1.514c0-0.405,0.102-0.87,0.303-1.394
		c0.162-0.363,0.242-1.051,0.242-2.06c0-0.404-0.02-0.869-0.061-1.394l0.545-1.695l2.12-5.876c0.242-0.645,0.625-1.999,1.151-4.059
		l0.242-0.666c0.121-0.322,0.464-1.109,1.03-2.361v-1.697l1.817-5.026c0.646-1.736,1.272-4.382,1.877-7.936
		c0.728-2.261,1.817-6.642,3.271-13.143c0.242-0.97,0.364-1.615,0.364-1.938c0-0.201-0.041-0.303-0.122-0.303
		c-10.62-0.08-16.172-0.12-16.657-0.12h-0.303c-1.372-0.485-2.382-1.232-3.028-2.242c-2.14-2.947-3.211-4.846-3.211-5.693
		c0-0.324,0.182-0.485,0.545-0.485c0.122,0,0.283,0.021,0.485,0.06l20.594,2.242c0.565,0.324,1.09,0.485,1.574,0.485
		c1.05,0,1.878-0.848,2.484-2.544c1.938-4.442,3.109-6.663,3.513-6.663c0.969-2.141,1.655-3.21,2.059-3.21
		c1.978-1.938,4.058-2.908,6.239-2.908C104.951,0.181,105.193,0.121,105.638,0.121z"/>
	<path d="M138.465,22.593c0.283,0,0.949,0.364,2,1.09c0.564,0,1.008,0.445,1.332,1.333c-0.041,0.283-0.121,0.566-0.242,0.848
		c-0.283,0.687-1.191,2.384-2.727,5.088c-0.646,1.737-1.07,2.827-1.271,3.271c-0.971,2.342-1.959,4.019-2.969,5.027
		c-0.322,0.566-0.586,1.111-0.787,1.636l-1.271,2.968c-0.121,0.363-0.324,0.787-0.605,1.271c0,0.566-0.143,1.414-0.424,2.544
		c-0.363,0-1.211-0.584-2.545-1.756c-0.201,0-0.424-0.565-0.666-1.696c-0.121,0-0.182-0.141-0.182-0.425
		c0-0.322,0.08-0.827,0.242-1.514c-0.082-0.16-0.121-0.424-0.121-0.787c0-0.969,0.262-2.625,0.787-4.966l-0.242-0.242h-0.121
		c-0.688,0.726-1.797,2.039-3.33,3.936c-0.688,0.405-1.515,1.233-2.485,2.484c-1.736,0.081-3.11,0.121-4.118,0.121h-1.757
		c-0.363,0-0.666-0.263-0.909-0.788c0.565-0.687,0.868-1.11,0.909-1.272l0.061-0.061c0.727-2.503,1.575-5.088,2.544-7.752V32.89
		c0-0.202,0.061-0.767,0.182-1.696h-0.122c-0.404,0.162-0.929,0.646-1.575,1.453c-0.566,1.536-1.07,2.828-1.514,3.877
		c-3.595,6.865-5.654,10.297-6.179,10.297c-0.444,0-0.687,0.021-0.727,0.06l-0.303-0.06c-3.271,0-4.906-0.282-4.906-0.849
		c0-0.039,0.021-0.08,0.061-0.121l0.061-0.484l0.121-0.182c0.524-0.646,1.514-2.463,2.968-5.451c3.028-4.886,4.805-7.955,5.33-9.207
		l0.727-1.817c0.606-1.414,1.736-2.403,3.392-2.969c0.242-0.565,1.958-1.19,5.148-1.877h0.424c0.202,0,0.807,0.283,1.816,0.848
		c2.221,0.889,3.332,1.555,3.332,1.999v0.06c-1.172,3.716-1.758,5.674-1.758,5.875c0.889,0,2.121-0.867,3.697-2.604
		c2.098-1.535,3.41-2.887,3.936-4.059c1.574-2.181,2.906-3.271,3.998-3.271C138.162,22.634,138.424,22.593,138.465,22.593z"/>
	<path d="M140.344,26.227c0.322,0,1.695,0.647,4.117,1.938c2.141,0.768,3.211,1.373,3.211,1.818v0.06l-0.121,0.181
		c-1.736,1.576-3.109,3.554-4.119,5.937l-0.545,1.333c0.807,1.131,1.373,1.696,1.695,1.696c0.484,0,1.414-0.667,2.787-1.999
		c1.008-1.898,1.998-4.018,2.969-6.36v-0.727c1.17-0.282,2.422-1.03,3.754-2.241c0.201,0,1.311,0.828,3.332,2.483
		c1.291,0.526,1.938,0.89,1.938,1.091v0.06c-0.039,0.041-0.08,0.485-0.121,1.333l-0.121,0.302c-0.404,0.525-1.01,1.636-1.816,3.332
		c-0.121,0-0.264,0.162-0.426,0.485v0.302c0,0.163-0.02,0.304-0.059,0.425c-1.252,0.889-2.342,2.422-3.271,4.603
		c-1.979,3.191-4.119,7.532-6.422,13.023c-0.928,2.383-1.432,3.675-1.512,3.877c-1.496,2.464-2.545,4.401-3.15,5.815
		c-0.162,0.362-0.465,1.15-0.908,2.361c-0.607,1.05-1.111,2.038-1.514,2.968c-0.203,0.485-0.465,1.212-0.789,2.181
		c-0.324,0.606-0.605,1.191-0.848,1.757c-0.121,0.242-0.344,1.069-0.666,2.483c-2.059,3.473-3.373,5.512-3.938,6.117
		c-0.402,0.282-1.051,1.07-1.938,2.362c-2.303,2.141-4.381,3.21-6.24,3.21c-0.605,0.04-1.23,0.062-1.876,0.062
		c-1.09,0-2.443-0.506-4.059-1.515c-0.04-0.323-0.242-0.484-0.605-0.484l-0.908,0.061c-0.686-0.89-1.03-1.777-1.03-2.665
		c0-0.526,0.101-1.03,0.303-1.515c0.727-0.565,1.878-0.849,3.453-0.849c-0.04,0.364-0.061,0.688-0.061,0.97
		c0,1.736,0.606,2.604,1.818,2.604c1.979,0,4.219-1.898,6.723-5.693l0.242-0.728c2.424-5.29,3.816-8.358,4.18-9.207l1.332-3.089
		c0.443-1.05,0.93-1.938,1.453-2.664c0-0.242,0.041-0.484,0.123-0.728l1.029-2.482c0.605-1.374,1.211-2.666,1.816-3.878l1.211-3.573
		c0.85-1.655,1.475-2.988,1.879-3.998c0.402-0.969,0.605-1.735,0.605-2.302c0-0.402-0.102-0.706-0.303-0.908
		c-0.566-0.242-1.312-0.402-2.242-0.484c-0.445,0.082-0.807,0.121-1.09,0.121h-0.303c-3.15,0-4.725-0.989-4.725-2.968v-0.06
		c-0.08,0-0.121-0.182-0.121-0.545c0-0.767,0.242-2.423,0.729-4.967c0.523-1.251,1.17-4.139,1.936-8.662l0.242-0.605
		C138.061,26.711,139.049,26.227,140.344,26.227z"/>
	<path d="M178.473,23.078c0.402,0.282,1.635,0.545,3.693,0.787c1.01,0.606,1.615,1.353,1.818,2.241
		c-0.203,0.445-1.414,0.787-3.635,1.03c-6.904,1.051-10.66,2.323-11.266,3.816c-0.121,0.728-0.182,1.333-0.182,1.817
		c0,1.172,0.303,1.757,0.908,1.757c0.283,0.202,0.424,0.544,0.424,1.029c0.727,1.293,2.039,2.302,3.938,3.029
		c0.242,1.252,0.564,2.483,0.969,3.694c0,0.283-0.102,0.768-0.303,1.454l-0.969,1.999c0,0.082-0.143,0.506-0.424,1.272
		c-1.414,1.656-3.271,2.483-5.572,2.483c-0.041,0-0.062-0.02-0.062-0.061v-0.061l-0.543,0.121h-1.213
		c-0.363,0-2.443-0.384-6.238-1.15c-1.494,0-2.465-0.343-2.906-1.03c-0.242-0.161-0.365-0.403-0.365-0.727
		c0-0.243,0.082-0.525,0.242-0.849l0.062-0.182c2.502-1.413,5.086-2.2,7.752-2.363l1.576-0.666l0.119-0.242
		c0.041-0.16,0.061-0.303,0.061-0.424c0-0.606-0.748-0.908-2.24-0.908c-0.445,0-2.059-0.485-4.846-1.454
		c-2.545-0.404-3.816-0.908-3.816-1.515c0-0.04,0.02-0.1,0.061-0.182c-0.041,0-0.061-0.06-0.061-0.181s0.061-0.364,0.184-0.727
		l0.242-0.667c0.199-0.443,0.482-0.968,0.846-1.574c0.605-2.261,1.051-3.715,1.334-4.361l0.727-1.696
		c2.219-1.493,4.26-2.242,6.117-2.242c2.1-0.686,5.168-1.553,9.207-2.604C174.717,23.501,176.172,23.28,178.473,23.078z"/>
	<path d="M197.066,25.258h1.031c0.645,0,1.654,0.626,3.027,1.877c2.342,1.131,3.635,3.353,3.877,6.663
		c0.041,0.566,0.061,1.071,0.061,1.515c0,0.93-0.08,1.575-0.242,1.938c-0.768,1.333-1.857,2-3.271,2h-0.787
		c-0.402,0-1.17,0.525-2.301,1.574l-0.545,0.062c-0.404-0.364-0.828-0.546-1.273-0.546l-4.783,0.908
		c-0.326,0-0.668-0.08-1.031-0.242c-1.736,0.446-2.664,0.808-2.785,1.091c-0.041,0.041-0.061,0.101-0.061,0.181
		c0,0.566,1.393,0.95,4.178,1.151c0.162,0.082,0.828,0.121,2,0.121c0.443,0,1.393-0.039,2.848-0.121v0.242l-0.244,0.425
		c-0.162,0.403-1.615,1.05-4.359,1.938c-2.102,0.444-3.758,0.666-4.969,0.666c-4.037,0-6.602-0.384-7.691-1.151
		c-2.303-0.807-3.453-1.393-3.453-1.757v-0.06c0.322-3.514,0.807-6.037,1.455-7.571c1.938-3.635,3.088-5.452,3.451-5.452
		c2.746-2.462,4.807-3.695,6.178-3.695C192.141,25.844,195.371,25.258,197.066,25.258z M189.496,34.768
		c-0.041,0.161-0.061,0.302-0.061,0.424c0,0.162,0.039,0.242,0.121,0.242c1.09-0.121,1.734-0.181,1.938-0.181
		c0.283,0,1.232,0.02,2.848,0.06c1.211-0.04,1.877-0.181,1.998-0.424c0.242-0.444,0.404-0.767,0.484-0.97
		c0.404-0.928,0.607-1.695,0.607-2.302c0-0.726-0.285-1.189-0.85-1.393h-0.727c-1.896,0-3.836,1.233-5.814,3.695
		C189.758,34.485,189.576,34.768,189.496,34.768z"/>
	<path d="M218.562,0.666c1.736,0.364,2.604,0.99,2.604,1.878c0,0.162-0.039,0.363-0.119,0.605c0,0.163-0.303,0.97-0.91,2.423
		l-0.363,0.908c-0.686,1.616-2.664,5.775-5.936,12.479l-2.727,5.996c-0.93,2.263-1.514,4.201-1.756,5.815
		c-0.363,0.847-0.586,2.241-0.666,4.179c-0.484,1.172-0.748,3.979-0.787,8.42v0.363c0,1.211,0.201,1.817,0.605,1.817
		c0.119-0.08,0.223-0.121,0.303-0.121c-0.08,0.688-0.223,1.313-0.426,1.878c-0.24,0.566-0.766,1.393-1.574,2.483
		c-0.242-0.201-0.465-0.303-0.664-0.303l-1.152,0.908c-0.041,0.082-0.586,0.162-1.635,0.243c-2.988,0-4.48-1.555-4.48-4.665
		c0-1.211,0.221-2.644,0.664-4.3c0.445-2.1,1.172-4.341,2.182-6.724c1.453-2.423,2.625-4.704,3.512-6.844
		c0.365-0.848,1.475-3.271,3.332-7.269c1.494-4.119,3.432-9.246,5.814-15.385l0.061-0.121c0.93-2.181,2.219-3.734,3.877-4.664
		H218.562z M208.385,49.183h0.062c0.041,0.041,0.061,0.102,0.061,0.183v0.121l-0.363,0.303c-0.041,0-0.061-0.021-0.061-0.062
		c0-0.08,0.02-0.16,0.061-0.241C208.225,49.284,208.305,49.183,208.385,49.183z"/>
	<path d="M241.338,0.484h0.305c2.461,0,5.146,1.454,8.055,4.362v0.06c0,0.163,0.1,0.586,0.303,1.272
		c-0.203,0.485-2.061,0.868-5.574,1.151c-2.342,1.09-4.4,3.755-6.178,7.995c-1.373,2.504-2.807,4.442-4.299,5.816l-0.426,0.726
		c-0.121,0.283-0.182,0.545-0.182,0.787c0,0.89,0.564,1.838,1.697,2.848c2.139,0,3.432,0.687,3.877,2.06
		c-0.244,0.081-0.385,0.181-0.426,0.302c-0.322,0-0.787-0.06-1.393-0.181c-2.383,0.121-4.361,0.181-5.936,0.181
		c-0.809,0-2.705,3.049-5.693,9.146c-0.162,0-0.404,0.343-0.727,1.03l-0.123,0.242c-0.201,0.485-0.301,1.373-0.301,2.666
		c-1.777,2.18-3.271,4.684-4.482,7.511c-0.969,1.695-1.557,2.664-1.756,2.906l-0.184-0.121h-0.242l-0.969,0.849
		c-0.041,0.688-0.121,1.172-0.242,1.453c-0.242,0.202-0.404,0.304-0.486,0.304c-0.08,1.09-0.18,1.776-0.301,2.06l-0.244,0.545
		c-0.16,0.323-0.402,0.484-0.727,0.484c-0.686,1.574-1.674,3.755-2.967,6.542c-0.082,0.161-0.385,1.131-0.91,2.906
		c-1.332,2.827-2.4,5.188-3.209,7.088c-0.363,0.686-0.564,1.068-0.605,1.15c-0.566-0.404-0.848-0.949-0.848-1.636
		c0-0.404,0.102-0.869,0.303-1.393c0.162-0.364,0.242-1.01,0.242-1.938c0-0.484-0.021-1.051-0.061-1.695l0.666-1.757l2.545-6.118
		c0.281-0.646,0.746-2.038,1.393-4.179l0.303-0.728c0.121-0.363,0.523-1.19,1.211-2.483c-0.039-1.091-0.059-1.675-0.059-1.757
		l2.238-5.209c0.768-1.857,1.494-4.623,2.182-8.297c0.848-2.383,1.676-4.846,2.484-7.39c0.281-0.97,0.422-1.636,0.422-2
		c0-0.241-0.059-0.362-0.18-0.362c-0.85,0.403-1.576,0.605-2.182,0.605h-0.361c-1.697-0.484-2.949-1.272-3.758-2.362
		c-0.039-0.202-0.059-0.424-0.059-0.666c0-0.485,0.119-1.03,0.361-1.636c0.242-0.645,1.434-1.272,3.574-1.878h5.148l0.365-0.423
		l0.361-0.909c0.768-1.777,1.635-3.896,2.605-6.36c2.342-4.684,3.775-7.025,4.301-7.025c1.17-2.221,2.02-3.332,2.543-3.332
		c2.422-2.019,4.986-3.029,7.693-3.029C240.469,0.545,240.771,0.484,241.338,0.484z"/>
</g>
</svg>
