<?xml version="1.0" encoding="utf-8"?>
<!-- Generator: Adobe Illustrator 15.1.0, SVG Export Plug-In . SVG Version: 6.00 Build 0)  -->
<!DOCTYPE svg PUBLIC "-//W3C//DTD SVG 1.1//EN" "http://www.w3.org/Graphics/SVG/1.1/DTD/svg11.dtd">
<svg version="1.1" id="Layer_1" xmlns="http://www.w3.org/2000/svg" xmlns:xlink="http://www.w3.org/1999/xlink" x="0px" y="0px"
	 width="100px" height="100px" viewBox="0 0 100 100" enable-background="new 0 0 100 100" xml:space="preserve">
<g>
	<path fill="#FFFFFF" d="M49.236,35.205h-7.655l-9.703,30.28h6.758l2.502-8.237h8.291l2.631,8.237h7.012l-9.792-30.139
		L49.236,35.205z M42.376,52.025l2.001-6.393c0.284-1.033,0.568-2.175,0.844-3.283c0.284,1.108,0.589,2.244,0.925,3.307l2.035,6.369
		H42.376z"/>
	<path fill="#FFFFFF" d="M64.496,41.463c2.1,0,3.625-1.457,3.625-3.469c-0.053-2.049-1.527-3.479-3.582-3.479
		c-2.075,0-3.584,1.47-3.584,3.496C60.955,39.979,62.477,41.463,64.496,41.463z"/>
	<rect x="61.258" y="43.269" fill="#FFFFFF" width="6.518" height="22.215"/>
</g>
</svg>
