<?xml version="1.0" encoding="utf-8"?>
<!-- Generator: Adobe Illustrator 18.1.0, SVG Export Plug-In . SVG Version: 6.00 Build 0)  -->
<!DOCTYPE svg PUBLIC "-//W3C//DTD SVG 1.1//EN" "http://www.w3.org/Graphics/SVG/1.1/DTD/svg11.dtd">
<svg version="1.1" id="Layer_1" xmlns="http://www.w3.org/2000/svg" xmlns:xlink="http://www.w3.org/1999/xlink" x="0px" y="0px"
	 viewBox="0 0 250 115" enable-background="new 0 0 250 115" xml:space="preserve">
<g>
	<path fill="#FFFFFF" d="M56.7,18.4c0.1,0.8,1.3,1.4,3.8,1.9c1.8,1.2,3.5,3.4,5.1,6.6c0.7,1.6,1.1,2.6,1.1,3v0.2l-0.2,0.5
		c-0.2,0-0.5,0.2-0.9,0.5l-1.2-0.2c-0.3,0-1.4,0.5-3.6,1.5h-0.5c-0.3,0-2.1-1.3-5.5-3.9h-0.5c-2,0.6-3.5,2.1-4.5,4.6l-2.3,5.4
		c-0.5,1.1-1.1,3.2-2,6.3l-0.9,2.2c-0.2,0.6-0.5,1.3-1,2.2c-1,2.4-1.6,6.5-1.7,12.1c1.8,2.4,3.7,3.6,6,3.6c1.2,0,3.4-0.7,6.5-2.2
		c-0.1,0.1-0.1,0.1-0.1,0.2c0,0.1,0,0.1,0.1,0.1c-1.8,2.8-2.7,4.2-2.9,4.2H51c-0.3,0-0.6-0.1-1-0.2c-0.2,0-1.3,1.1-3.2,3.4
		c-3,1.4-6.2,2.6-9.5,3.4h-1c-1,0-3.2-0.8-6.6-2.5c-1.7-3-2.6-5.2-2.8-6.3c-0.2-2.8-0.2-5-0.2-6.7c0-1.9,0.1-3.1,0.3-3.7
		c0.7-3.3,1.6-6.1,2.6-8.5c1.8-4.3,5.4-10.1,10.7-17.2c5.6-6.5,9.9-9.7,12.9-9.7C53.2,18.5,54.4,18.4,56.7,18.4z"/>
	<path fill="#FFFFFF" d="M60.8,46c3,0.5,6.2,1.3,9.4,2.2c0.2,0,0.2,0.2,0.2,0.7c0,1-0.4,3.2-1.2,6.6c-3.1,8.6-4.8,12.9-5.3,12.9
		c-0.8,1.1-1.7,2.6-2.6,4.6c-2,2.2-4.5,3.3-7.5,3.3c-1.5-0.2-2.2-0.5-2.2-1.1v-0.2c1.1-0.4,1.8-0.7,1.9-1.2h-1
		c-0.4,0-0.8,0.1-1.2,0.2c-3.7,0-5.9-1.2-6.6-3.6c-0.6-0.4-0.9-1-0.9-1.9v-0.2c-0.1-0.5-0.1-1-0.1-1.5c0-1,0.1-1.9,0.4-2.9L45,61
		c0.8-2.6,1.6-4.2,2.2-4.7C52.8,49.4,57.3,46,60.8,46z M55.1,59.4l-0.5,1.9c-0.1,1-0.2,2-0.2,2.9c0,2.5,0.3,4.7,0.9,6.6l0.5,1.5H56
		c1.5-2.5,2.7-5.2,3.6-8.2l0.8-2.2c0.5-2.5,0.8-4.2,0.8-5.2c0-0.6-0.1-0.9-0.3-0.9c-0.8-0.7-1.8-1.1-2.8-1.2
		C56.8,55.7,55.8,57.3,55.1,59.4z"/>
	<path fill="#FFFFFF" d="M80.4,41.9h2.6c2.6,0,4.5,0.4,5.5,1.1c-0.6,2-0.9,3.1-0.9,3.3c-0.6,1.5-2.5,5.7-5.8,12.5
		c-0.1,0-0.3,0.3-0.5,0.8c0,0.2,0.2,0.3,0.5,0.5c0.4,0,1.8-1.3,4.3-3.9c4.5-4.7,7-7.7,7.4-8.8c1.2-2,2.4-2.9,3.6-2.9
		c0.8-0.6,1.8-0.9,3-0.9c4.4,0.9,6.6,1.9,6.6,3c0,0.1,0,0.2-0.1,0.3c0.1,0.3,0.1,0.6,0.1,1c0,0.9-0.1,1.9-0.3,3.2l-5.7,12.3v0.3
		c-0.8,2.1-1.5,4.6-2.2,7.6c-0.5,1.1-0.9,2.1-1.2,2.9c-0.3,0.7-0.5,2.2-0.6,4.5l-0.2,0.6C96,80.4,95.6,81,95.3,81
		c-2.4-2.2-3.6-3.5-3.6-4.1v-0.1c0.1-0.4,0.2-0.8,0.2-1.2c0-1.1-0.3-2.6-0.9-4.3c0.6-3.2,1.9-8.6,4-16.2L94.7,54
		c-0.9,0-2.2,1.4-4,4.3c-2.1,2.4-6.1,8-12.1,16.8c-1.3,1.3-2,2-2.2,2h-4.2c-0.6,0-1.7,0.2-3.4,0.5c-1.3,0-2-0.6-2-1.8
		c0-0.5,0.1-1.1,0.3-1.8l0.5-1.2c1.4-4.2,3.5-9.4,6-15.5l0.7-2.2c1.3-4,2-7.1,2.1-9.3l0.5-1.4C77.8,42.7,78.9,41.9,80.4,41.9z"/>
	<path fill="#FFFFFF" d="M125.3,17.4h0.2c3,1.3,4.8,2,5.6,2h0.2c0.5,0,1.1-0.1,1.9-0.2c0.2,0.2,0.3,0.4,0.3,0.5c0,0.1,0,0.2-0.1,0.2
		l-0.5,0.9l-1.2,2.5c0.1,0.7,2.1,1.6,6,2.8c0.5-0.4,0.9-0.5,1.2-0.5h0.6c0.3,0,0.9,1,1.6,3c0.8,0.2,1.2,0.5,1.2,0.9v0.2
		c-0.5,0.9-2.2,2.2-5.2,3.9h-0.4l-0.6-0.5c-0.7,0.3-1.2,0.5-1.5,0.5c-0.6,0-1.2-0.3-1.7-1c-2.2,1.7-4.2,2.9-6,3.8
		c-3.2,3.7-5,5.8-5.3,6.4c-2.6,5.8-5.3,11.5-8.2,17.2l-0.2,0.5l-1.1,3c-1.3,1.6-2.4,3.6-3.4,6c-0.1,0-0.5,0.9-1.2,2.7
		c-0.1,0.2-0.3,1.1-0.7,2.7c-0.7,0.6-2.6,1.2-5.8,1.8c-0.1,0.2-0.3,0.4-0.7,0.5c0.1-1,0.4-2,0.8-2.9l0.1-0.2c0.6-1,1-2,1.4-2.8
		c-0.8,0-1.2-0.3-1.2-0.9c0-0.3,0.1-0.7,0.3-1.1l0.1-0.3c2.4-5.3,3.7-8.2,3.9-8.7l1.6-4.7c2.6-5.6,4.4-9.4,5.2-11.4
		c2.3-5.4,3.4-8.5,3.4-9.3c0-0.1,0-0.2-0.1-0.2c-0.7-0.3-1.2-0.5-1.5-0.5c-1.3,1.1-2,1.7-2.1,1.7c-2.2-2-3.8-2.9-4.7-2.9
		c-0.8-0.4-1.2-1-1.2-1.9c0-0.5,0.2-1.2,0.5-1.9l0.8-1.7c2.2-3.7,3.9-5.5,5.1-5.5h0.4c1.9,0,4.3,0.2,7.2,0.5
		C122.8,19.1,124.4,17.4,125.3,17.4z"/>
	<path fill="#FFFFFF" d="M138.6,48.1l3.4,0.8c0.4,0,1.2-0.3,2.6-0.8c1,0.2,2.9,1.2,5.6,2.9c2.2,0,3.3,0.6,3.5,1.9
		c-1.2,1.7-1.9,2.6-1.9,2.8l-0.1,0.2l0.1,0.7l-0.1,0.2c-0.2,0.4-0.6,1.1-1.2,2c0.3,0.4,0.5,1,0.5,1.8c0,0.7-0.2,1.6-0.5,2.7
		c-0.7,2.7-1.7,5.6-3,8.9l-0.5,1.3c-1.3,1.1-2.7,1.6-4.2,1.6c-0.5,0-1.2-0.5-2.1-1.5c-1.3,0-2-0.8-2-2.3v-0.6
		c-0.1-0.3-0.3-0.6-0.6-0.8c-5.3,2.4-8.8,3.6-10.5,3.6h-0.2c-1.2,0-2.6-0.1-4.1-0.4c-1,0.3-1.7,0.4-2.1,0.4
		c-3.2-1.6-4.9-3.1-4.9-4.6c0-0.3,0.1-0.6,0.2-0.9l0.3-0.8c2.9-5.9,5.5-9.9,7.7-12.2c1.4-1.9,2.8-3,3.9-3.3
		C132.6,49.3,136,48.1,138.6,48.1z M137.6,57.5l-1.3,1.7c-0.6,3-0.9,5.1-0.9,6.3c0,0.9,0.2,1.3,0.5,1.3c0.2,0.3,0.5,0.4,0.9,0.4h0.4
		c0.5,0,0.8-0.2,1-0.7c0.3-0.8,0.5-1.8,0.5-2.9C138.6,61.9,138.3,59.9,137.6,57.5z"/>
	<path fill="#FFFFFF" d="M172.8,48.1c0.9,0,1.7,1.3,2.2,3.9c0.5,0,0.7,0.1,0.7,0.3v0.1l-0.2,0.6c-0.2,0.4-1.4,0.9-3.9,1.5
		c-2.3,1.1-3.7,2.7-4.4,4.9l-0.8,1c-0.2,0.5-0.2,1-0.2,1.5c0,1.4,0.6,2.9,1.9,4.5c1.6,0.8,2.6,2.1,2.9,4.1v0.2
		c-0.3,0.9-0.7,1.7-1.5,2.3h-0.9c-5.4,1.2-9.1,1.8-11.1,1.8h-0.5c-3.1-0.7-4.6-1.5-4.6-2.2v-0.2c-0.5-0.7-0.9-2.3-1.1-4.8
		c2-4.7,3.2-7.1,3.8-7.1c2.6-4.3,4.6-6.9,6.2-7.8c2.8-2.1,5.3-3.2,7.5-3.2C168.9,49.3,170.2,48.8,172.8,48.1z"/>
	<path fill="#FFFFFF" d="M204.1,14.5h0.3c0.4-0.1,0.7-0.2,1-0.2c1.1,0,1.7,0.7,1.7,2.1c0,2.8-2.1,8.2-6.4,16.2l-2.2,4.6l10.7,1.9
		c5.9,0.4,10.6,1.4,14.2,3.2c-3.3,0.1-5,0.1-5,0.2c-0.3,0-0.8-0.1-1.4-0.2c-12.1-0.4-18.9-0.6-20.5-0.6c-0.8,0-3.3,6.3-7.5,18.9
		c-0.2,0.1-0.4,0.5-0.8,1.2l-0.2,0.4c-0.2,0.6-0.3,1.6-0.4,3.2c-1.8,2.7-3.4,5.8-4.6,9.3c-1,2.1-1.7,3.2-1.9,3.6l-0.2-0.2h-0.3
		l-1,1.1c0,0.8-0.1,1.4-0.2,1.8c-0.3,0.2-0.4,0.3-0.5,0.3c-0.1,1.3-0.2,2.2-0.3,2.5l-0.2,0.8c-0.2,0.4-0.5,0.5-0.8,0.5
		c-0.7,2-1.8,4.6-3.1,8c-0.1,0.3-0.4,1.4-1,3.6c-1.4,3.5-2.5,6.4-3.4,8.7c-0.4,0.8-0.6,1.3-0.6,1.4c-0.6-0.5-0.9-1.1-0.9-1.9
		c0-0.5,0.1-1.1,0.4-1.8c0.2-0.5,0.3-1.3,0.3-2.6c0-0.5,0-1.1-0.1-1.8l0.7-2.2l2.7-7.5c0.3-0.8,0.8-2.6,1.5-5.2l0.3-0.9
		c0.2-0.4,0.6-1.4,1.3-3v-2.2l2.3-6.4c0.8-2.2,1.6-5.6,2.4-10.1c0.9-2.9,2.3-8.5,4.2-16.8c0.3-1.2,0.5-2.1,0.5-2.5
		c0-0.3-0.1-0.4-0.2-0.4c-13.6-0.1-20.6-0.2-21.3-0.2h-0.4c-1.8-0.6-3-1.6-3.9-2.9c-2.7-3.8-4.1-6.2-4.1-7.3c0-0.4,0.2-0.6,0.7-0.6
		c0.2,0,0.4,0,0.6,0.1l26.3,2.9c0.7,0.4,1.4,0.6,2,0.6c1.3,0,2.4-1.1,3.2-3.2c2.5-5.7,4-8.5,4.5-8.5c1.2-2.7,2.1-4.1,2.6-4.1
		c2.5-2.5,5.2-3.7,8-3.7C203.3,14.6,203.6,14.5,204.1,14.5z"/>
</g>
</svg>
