<?xml version="1.0" encoding="utf-8"?>
<!-- Generator: Adobe Illustrator 15.1.0, SVG Export Plug-In . SVG Version: 6.00 Build 0)  -->
<!DOCTYPE svg PUBLIC "-//W3C//DTD SVG 1.1//EN" "http://www.w3.org/Graphics/SVG/1.1/DTD/svg11.dtd">
<svg version="1.1" id="Layer_1" xmlns="http://www.w3.org/2000/svg" xmlns:xlink="http://www.w3.org/1999/xlink" x="0px" y="0px"
	 width="250px" height="126px" viewBox="0 0 250 126" enable-background="new 0 0 250 126" xml:space="preserve">
<g>
	<path d="M65.63,1.641h0.345c3.8,0.519,5.959,1.123,6.478,1.814V3.54c0,0.173,0.057,0.318,0.173,0.433
		c-0.518,1.037-0.807,1.641-0.864,1.813c-0.807,2.304-1.498,4.145-2.074,5.527c-0.288,0.691-0.689,1.583-1.208,2.677
		c-0.634,2.188-1.842,5.872-3.627,11.053c0.057,0,0.085,0.03,0.085,0.087c0,0.748-1.669,5.211-5.006,13.385
		c-0.866,3.743-2.362,8.635-4.491,14.68c0.056,0.577,0.085,1.152,0.085,1.728c0,1.842-0.144,3.798-0.431,5.872
		c-2.417,2.764-4.231,4.145-5.441,4.145c-0.23,0-1.122-0.114-2.677-0.346c-0.98,0.404-1.64,0.605-1.985,0.605h-1.296
		c-0.057-0.057-0.086-0.143-0.086-0.26c0-0.979,0.95-4.605,2.851-10.88c0.862-3.741,2.993-10.967,6.389-21.676v-0.431
		c0-0.519,0.087-1.037,0.26-1.555h-0.086c-1.555,0.979-7.312,9.356-17.272,25.13c-1.152,2.763-2.102,4.146-2.849,4.146
		c-1.5,0.344-3.773,0.834-6.823,1.468c-1.439-0.403-2.417-1.007-2.936-1.813l0.086-0.26c0.23-0.519,1.209-2.388,2.936-5.612
		c0.52-1.267,0.778-2.706,0.778-4.318c0-0.921-0.087-1.901-0.259-2.936c0.631-3.511,0.977-6.85,1.036-10.018
		c-0.116-0.057-0.173-2.964-0.173-8.722h-0.171c-2.592,4.204-4.464,7.715-5.615,10.536c-1.035,2.649-1.698,4.29-1.985,4.922
		c-2.936,5.758-4.635,9.184-5.095,10.276l-1.813,5.008c-0.979,1.844-1.699,3.312-2.159,4.406l-0.777,1.726
		c-0.635,1.555-1.727,2.332-3.282,2.332c-0.173,0.173-2.275,0.749-6.304,1.727C0.116,68.394,0,68.221,0,67.875
		c0-0.401,0.173-1.092,0.519-2.072c1.094-2.129,2.217-4.577,3.368-7.34l0.863-2.072c6.274-14.564,9.758-22.654,10.448-24.266
		l2.246-5.268c6.678-14.68,10.765-22.02,12.263-22.02c2.359-1.324,3.973-1.987,4.835-1.987c4.203,0,6.305,0.749,6.305,2.245
		c0,0.289-0.059,0.604-0.172,0.95v0.173c0,0.75-0.663,3.224-1.987,7.427v0.259c0,1.843-0.634,6.248-1.9,13.212v1.037
		c0,1.728-0.202,4.52-0.603,8.377l0.258,3.194c2.936-3.568,8.924-12.549,17.961-26.942c5.065-7.196,8.119-10.794,9.154-10.794
		C64.421,1.756,65.113,1.641,65.63,1.641z"/>
	<path d="M63.903,37.133c0.461,0,2.417,0.922,5.874,2.763c3.05,1.095,4.575,1.958,4.575,2.592v0.086l-0.171,0.258
		c-2.476,2.246-4.436,5.066-5.872,8.464l-0.778,1.899c1.151,1.612,1.957,2.417,2.418,2.417c0.691,0,2.015-0.95,3.973-2.849
		c1.439-2.707,2.85-5.728,4.231-9.068v-1.037c1.669-0.401,3.455-1.468,5.354-3.194c0.288,0,1.871,1.181,4.75,3.54
		c1.842,0.75,2.765,1.268,2.765,1.555v0.085c-0.059,0.059-0.117,0.691-0.174,1.901l-0.171,0.431c-0.577,0.749-1.439,2.332-2.59,4.75
		c-0.174,0-0.375,0.231-0.605,0.691v0.431c0,0.231-0.029,0.433-0.086,0.605c-1.785,1.267-3.34,3.453-4.664,6.562
		c-2.822,4.55-5.872,10.739-9.154,18.567c-1.325,3.397-2.045,5.239-2.159,5.526c-2.13,3.513-3.627,6.276-4.49,8.291
		c-0.231,0.517-0.663,1.641-1.296,3.367c-0.863,1.497-1.583,2.906-2.158,4.231c-0.29,0.691-0.663,1.728-1.124,3.109
		c-0.46,0.864-0.863,1.698-1.208,2.505c-0.173,0.345-0.49,1.525-0.95,3.54c-2.936,4.951-4.808,7.858-5.614,8.722
		c-0.575,0.401-1.497,1.525-2.763,3.367c-3.281,3.052-6.245,4.577-8.895,4.577c-0.862,0.057-1.755,0.087-2.676,0.087
		c-1.554,0-3.483-0.721-5.786-2.159c-0.057-0.461-0.346-0.691-0.863-0.691l-1.296,0.087c-0.977-1.268-1.468-2.535-1.468-3.8
		c0-0.75,0.146-1.468,0.432-2.159c1.037-0.807,2.679-1.209,4.924-1.209c-0.057,0.519-0.087,0.98-0.087,1.382
		c0,2.475,0.864,3.713,2.592,3.713c2.82,0,6.015-2.706,9.585-8.117l0.346-1.037c3.453-7.543,5.441-11.917,5.958-13.126l1.899-4.404
		c0.634-1.497,1.325-2.763,2.073-3.798c0-0.346,0.057-0.691,0.173-1.037l1.468-3.54c0.864-1.958,1.727-3.8,2.59-5.528l1.727-5.095
		c1.209-2.359,2.102-4.26,2.677-5.699c0.576-1.381,0.864-2.475,0.864-3.282c0-0.574-0.145-1.007-0.431-1.295
		c-0.809-0.345-1.873-0.574-3.196-0.691c-0.634,0.117-1.152,0.173-1.554,0.173h-0.433c-4.491,0-6.736-1.41-6.736-4.231v-0.085
		c-0.116,0-0.171-0.26-0.171-0.777c0-1.094,0.346-3.455,1.035-7.082c0.747-1.784,1.669-5.901,2.763-12.35l0.346-0.862
		C60.65,37.824,62.06,37.133,63.903,37.133z"/>
	<path d="M123.748,31.952c4.26,1.612,6.391,2.763,6.391,3.454v0.173c2.705,1.267,4.059,2.216,4.059,2.849v0.172l-0.174,0.606
		l-0.518,0.862c-0.863,3.973-1.498,6.478-1.898,7.513c-0.463,0.864-0.721,1.354-0.779,1.468c0.922-0.574,4.061-4.663,9.412-12.263
		c1.613-1.438,2.793-2.158,3.543-2.158h1.898c3.225,0,6.133,1.208,8.723,3.626c0.748,0.29,1.123,0.691,1.123,1.209
		c0,0.173-0.059,0.375-0.172,0.604c-0.637,1.209-1.096,2.159-1.383,2.85l-0.172,0.346c-0.922,2.822-1.383,4.663-1.383,5.526
		c0,0.404,0.086,0.604,0.258,0.604h0.088c6.678-8.52,10.533-12.781,11.57-12.781c0.52-0.229,1.152-0.401,1.9-0.517
		c4.432,1.267,6.65,2.331,6.65,3.194c0,0.116-0.031,0.203-0.088,0.258l-0.086,0.173c-0.115,0.404-1.18,1.295-3.195,2.678h-0.086
		c-0.346-0.114-0.662-0.173-0.949-0.173l-0.26,0.346c0,0.404-0.059,0.777-0.174,1.122l-0.344,0.691
		c-0.059,0.289-1.096,1.065-3.109,2.332c-1.268,1.612-2.936,3.224-5.01,4.835c-0.287,0.691-1.035,1.584-2.244,2.678
		c-0.172,0.519-1.152,1.498-2.936,2.936c-2.707,2.822-4.375,5.038-5.01,6.649c-0.172,0.346-0.635,1.671-1.381,3.973
		c-0.98,0.691-1.785,1.037-2.418,1.037c-1.498-0.345-2.447-0.518-2.85-0.518c-0.115,0-0.777,0.057-1.986,0.173
		c-0.461-0.346-0.689-0.778-0.689-1.295l0.17-0.519c0.117-0.23,0.461-0.834,1.037-1.813c0.23-1.265,0.346-2.101,0.346-2.505
		c0-0.229-0.029-0.345-0.086-0.345c-1.613-0.747-2.418-1.524-2.418-2.331c0-0.173,0.027-0.346,0.086-0.519
		c0.23-2.302,0.346-4.116,0.346-5.441c0-0.691-0.029-1.238-0.086-1.641h-0.086c-1.672,1.727-4.377,5.325-8.117,10.794
		c-0.174,0.461-0.52,1.612-1.037,3.455c-1.785,1.094-4.145,1.871-7.082,2.332c-0.115,0.346-0.893,0.576-2.332,0.69h-1.122
		c-1.325,0-1.985-0.431-1.985-1.295c0-0.345,0.086-0.747,0.258-1.208c-0.172,0-0.258-0.315-0.258-0.95
		c0-1.497,0.603-4.951,1.812-10.363c0.402-1.901,0.661-3.943,0.778-6.132c0.574-1.324,0.862-2.475,0.862-3.454
		c0-0.633-0.145-1.208-0.432-1.727c0.173-0.346,0.261-0.72,0.261-1.123c0-1.265-0.663-2.706-1.988-4.318
		c-0.057-0.518-0.086-1.006-0.086-1.468c0-1.151,0.2-2.215,0.604-3.194C120.553,32.672,121.962,31.952,123.748,31.952z"/>
	<path d="M178.498,35.061c3.395,0.576,6.879,1.411,10.449,2.505c0.172,0,0.258,0.259,0.258,0.777c0,1.152-0.432,3.627-1.295,7.426
		c-3.455,9.616-5.412,14.421-5.871,14.421c-0.922,1.21-1.9,2.909-2.938,5.095c-2.189,2.477-4.979,3.714-8.375,3.714
		c-1.672-0.173-2.506-0.575-2.506-1.209v-0.26c1.266-0.401,1.957-0.833,2.072-1.295h-1.121c-0.463,0-0.893,0.059-1.297,0.173
		c-4.088,0-6.533-1.324-7.34-3.971c-0.689-0.403-1.035-1.124-1.035-2.159v-0.26c-0.059-0.574-0.086-1.151-0.086-1.726
		c0-1.093,0.143-2.159,0.432-3.196l1.035-3.28c0.92-2.938,1.756-4.692,2.506-5.268C169.543,38.889,174.582,35.061,178.498,35.061z
		 M172.193,50l-0.605,2.158c-0.115,1.152-0.172,2.246-0.172,3.281c0,2.822,0.346,5.268,1.037,7.341l0.518,1.64h0.172
		c1.67-2.763,3.023-5.813,4.061-9.154l0.863-2.503c0.574-2.764,0.863-4.693,0.863-5.787c0-0.691-0.117-1.037-0.346-1.037
		c-0.922-0.806-1.957-1.265-3.107-1.381C174.035,45.885,172.941,47.699,172.193,50z"/>
	<path d="M201.469,27.115c-0.117,1.268-0.174,2.419-0.174,3.455c0,3.454,0.719,5.182,2.158,5.182c0.922,0,2.104-0.661,3.543-1.986
		c0.285-0.057,0.572-0.087,0.861-0.087c1.613,0,2.734,0.864,3.369,2.592c2.646,3.857,3.973,6.419,3.973,7.686
		c0,0.23-0.029,0.402-0.088,0.517c-0.057,1.21-0.115,1.873-0.17,1.986c-0.635,0.519-1.412,0.777-2.334,0.777
		c-2.303,0-3.916-0.777-4.836-2.33l-0.775-0.433c-0.52,0-1.785,0.923-3.801,2.763c-0.174,0-0.893,1.354-2.158,4.06l-9.674,18.566
		c-1.207,0.75-2.762,1.122-4.662,1.122h-2.418c-0.23,0-0.43-0.114-0.605-0.345l0.52-0.95l1.209-3.367
		c0.518-1.324,1.496-5.037,2.936-11.14l0.346-0.95c0.057-0.116,0.172-0.289,0.346-0.519c0.633-3.511,1.496-6.764,2.59-9.757
		l1.209-2.765c1.555-4.087,2.477-7.483,2.766-10.189l0.084-0.346c0.863-2.188,2.273-3.282,4.232-3.282
		C200.432,27.375,200.951,27.288,201.469,27.115z"/>
	<path d="M232.988,0c4.547,0.979,6.822,2.505,6.822,4.577c0,0.461-0.088,0.923-0.26,1.382l-0.26,0.519
		c-1.727,1.958-2.965,3.857-3.713,5.699l-1.898,4.404l-3.023,5.958c-1.326,3.627-1.986,5.931-1.986,6.909
		c0,0.346,0.086,0.519,0.26,0.519h0.172c0.691-0.403,5.641-4.461,14.854-12.177c0.115,0,1.783-1.093,5.008-3.282
		c0.23-0.171,0.488-0.258,0.779-0.258h0.17c0.059,0,0.088,0.203,0.088,0.604c0,0.518-0.059,1.498-0.172,2.936l-0.174,0.26
		c-1.096,0.807-3.686,3.57-7.773,8.29c-1.266,0.864-5.525,4.721-12.779,11.571c4.375,5.931,6.562,10.623,6.562,14.076
		c0,0.808-0.115,1.555-0.346,2.246c-0.576,2.533-1.035,4.203-1.381,5.008l-0.172,0.345c-0.117,0.231-0.809,0.921-2.074,2.072h-0.344
		l-0.605-2.072h-0.26l-2.158,1.727c-1.209-1.265-2.506-5.122-3.887-11.571c-1.381-4.317-2.475-6.476-3.281-6.476l-0.172,0.259
		l-1.123,1.813c-0.979,2.59-1.812,4.664-2.504,6.217c-0.461,1.153-1.383,3.139-2.764,5.959c-0.635,1.554-1.066,4.203-1.295,7.944
		l-0.26,0.604h-0.518c-2.936,1.614-4.779,2.419-5.525,2.419h-0.346c-0.059-1.037-0.117-1.555-0.174-1.555l-1.469,1.555h-0.258
		v-0.864c0-1.555,0.402-3.339,1.209-5.354c0.459-1.094,1.094-2.505,1.898-4.231c4.201-11.227,10.133-26.31,17.791-45.251
		c0.574-2.129,1.18-5.411,1.812-9.845l0.086-0.258C229.793,0.894,231.605,0,232.988,0z"/>
</g>
</svg>
